<svg xmlns="http://www.w3.org/2000/svg" width="963" height="710.177" viewBox="0 0 963 710.177" xmlns:xlink="http://www.w3.org/1999/xlink" role="img" artist="Katerina Limpitsouni" source="https://undraw.co/"><g transform="translate(-797.007 -189.569)"><ellipse cx="132.478" cy="28.299" rx="132.478" ry="28.299" transform="translate(1255.404 843.149)" fill="#f8f8f8" opacity="0.996"/><path d="M1094.257,575.739v235.35c-63.31,9.447-127.9,11.371-192.178,13.274-179.293,5.307-359.051,10.6-537.869-1.632-79.081-5.4-160.118-14.874-229.427-47.237V485.547c.259-199.971-.821,0,0-200.577V212.991a15.241,15.241,0,0,1,15.241-15.241h928.991a15.241,15.241,0,0,1,15.241,15.241V395.268C1094.905,575.263,1093.824,395.83,1094.257,575.739Z" transform="translate(664.037 -6.681)" fill="#f8f8f8"/><path d="M606.193,831.7c-43.085,0-82.707-.545-121.13-1.667-41.866-1.222-82.562-3.174-120.955-5.8-22.932-1.567-41.846-3.193-59.523-5.115-21.54-2.342-40.846-5.1-59.022-8.415-43.029-7.859-79.473-18.93-111.414-33.844l-.865-.4v-290.9c.108-83.232-.014-97.7-.14-99.574a2.2,2.2,0,0,1-.114-.608c-.018-.26-.03-.717-.039-1.48-.021-1.732-.026-5.239-.018-11.037.019-13.143.112-39.427.31-87.885V212.991a16.729,16.729,0,0,1,16.741-16.741h928.991a16.728,16.728,0,0,1,16.741,16.741V395.262c.149,41.343.217,66.4.213,78.854,0,5.169-.015,8.33-.042,9.946-.012.7-.026,1.118-.046,1.369a2.159,2.159,0,0,1-.11.576c-.112,1.707-.194,15.027-.014,89.727V812.382l-1.279.191c-15.24,2.274-30.867,4.172-47.774,5.8-15.057,1.451-30.785,2.655-48.083,3.678-32.226,1.907-64.9,2.874-96.5,3.809C805.251,828.73,705.081,831.7,606.193,831.7Zm-469.91-57.157c31.5,14.6,67.434,25.467,109.818,33.209,18.1,3.307,37.34,6.049,58.807,8.384,17.636,1.918,36.512,3.54,59.4,5.1,73.368,5.02,152.488,7.461,241.881,7.461,98.843,0,198.991-2.964,295.841-5.831,31.576-.935,64.228-1.9,96.409-3.806,17.261-1.022,32.952-2.222,47.972-3.67,16.383-1.579,31.557-3.41,46.341-5.593V575.739c-.1-40.042-.126-65.811-.091-78.776.014-5.057.037-8.313.072-9.955.015-.7.032-1.121.054-1.379a2.183,2.183,0,0,1,.107-.554c.108-1.927.114-18.369-.143-89.8V212.991a13.741,13.741,0,0,0-13.741-13.741H150.025a13.741,13.741,0,0,0-13.741,13.741v71.985c-.335,81.874-.36,98.079-.269,100.053a2.261,2.261,0,0,1,.106.548c.024.275.043.736.06,1.5.042,1.835.074,5.438.1,11.013.061,14.764.063,43.373.006,87.462Z" transform="translate(664.037 -6.681)" fill="#090814"/><g transform="translate(1079.202 263.091)"><path d="M8.647,0H390.063a8.647,8.647,0,0,1,8.647,8.647V22.224a8.647,8.647,0,0,1-8.647,8.647H8.647A8.647,8.647,0,0,1,0,22.224V8.647A8.647,8.647,0,0,1,8.647,0Z" fill="#090814"/><path d="M738.711,280.523h-.659l-.249-.205a5.512,5.512,0,0,0,1.286-3.513,5.34,5.34,0,1,0-5.318,5.4,5.5,5.5,0,0,0,3.5-1.276l.238.205v.627l4.118,4.129,1.232-1.232Zm-4.94,0a3.7,3.7,0,1,1,2.629-1.087,3.718,3.718,0,0,1-2.629,1.087Z" transform="translate(-367.099 -263.801)" fill="#e6e6e6"/></g><path d="M6.432,0H30.774a6.432,6.432,0,1,1,0,12.863H6.432A6.432,6.432,0,0,1,6.432,0Z" transform="translate(948.075 560.833)" fill="#090814" opacity="0.999"/><path d="M6.432,0h45.01a6.432,6.432,0,1,1,0,12.863H6.432A6.432,6.432,0,0,1,6.432,0Z" transform="translate(948.075 592.99)" fill="#d6d6e3"/><path d="M6.432,0H109.325a6.432,6.432,0,0,1,0,12.863H6.432A6.432,6.432,0,0,1,6.432,0Z" transform="translate(948.075 576.917)" fill="#d6d6e3"/><path d="M215.353,570.9a6.2,6.2,0,0,0-6.269,6.15,4.194,4.194,0,0,1-4.183,4.1,10.809,10.809,0,0,0,8.356,4.107,8.291,8.291,0,0,0,8.377-8.2,6.215,6.215,0,0,0-6.28-6.15Zm28.677-19.2-2.81-2.756a2.1,2.1,0,0,0-2.94,0l-18.743,18.376,5.751,5.642,18.722-18.376a2.01,2.01,0,0,0,.022-2.886Z" transform="translate(669.737 21.692)" fill="#6c63ff"/><path d="M6.432,0H30.774a6.432,6.432,0,1,1,0,12.863H6.432A6.432,6.432,0,0,1,6.432,0Z" transform="translate(948.075 401.353)" fill="#090814" opacity="0.999"/><path d="M6.432,0h45.01a6.432,6.432,0,1,1,0,12.863H6.432A6.432,6.432,0,0,1,6.432,0Z" transform="translate(948.075 433.51)" fill="#d6d6e3"/><path d="M6.432,0H109.325a6.432,6.432,0,0,1,0,12.863H6.432A6.432,6.432,0,0,1,6.432,0Z" transform="translate(948.075 417.426)" fill="#d6d6e3"/><path d="M244.113,427.212,227.7,410.7a11.7,11.7,0,0,0-2.713-12.517,11.89,11.89,0,0,0-13.349-2.356l7.761,7.8-5.4,5.4-7.912-7.761a11.739,11.739,0,0,0,2.346,13.414,11.523,11.523,0,0,0,12.441,2.724l16.376,16.527a1.74,1.74,0,0,0,2.529,0l4.151-4.172a1.632,1.632,0,0,0,.184-2.54Z" transform="translate(669.74 9.26)" fill="#6c63ff"/><path d="M6.432,0H30.774a6.432,6.432,0,1,1,0,12.863H6.432A6.432,6.432,0,0,1,6.432,0Z" transform="translate(1258.041 560.833)" fill="#090814" opacity="0.999"/><path d="M6.432,0h45.01a6.432,6.432,0,1,1,0,12.863H6.432A6.432,6.432,0,0,1,6.432,0Z" transform="translate(1258.041 592.99)" fill="#d6d6e3"/><path d="M6.432,0H109.325a6.432,6.432,0,0,1,0,12.863H6.432A6.432,6.432,0,0,1,6.432,0Z" transform="translate(1258.041 576.917)" fill="#d6d6e3"/><path d="M510.817,574.117a10.809,10.809,0,0,1-10.69,0c-4.183,1.286-6.745,5.5-7.7,9.231H518.5C517.561,579.618,515.01,575.4,510.817,574.117Zm-5.34-19.857a9.393,9.393,0,1,0,9.393,9.383A9.393,9.393,0,0,0,505.477,554.26Zm0,16.538a7.253,7.253,0,0,1-6.561-4.475h13.122a7.253,7.253,0,0,1-6.561,4.475Z" transform="translate(693.006 22.17)" fill="#6c63ff"/><path d="M523.083,569.49a10.885,10.885,0,0,1-9.08.746,12.969,12.969,0,0,1-2.486,3.091,12.148,12.148,0,0,1,5.3,4.68h13.955a11.588,11.588,0,0,0-7.685-8.518Zm-5.34-19.867a9.415,9.415,0,0,0-7.923,4.324,11.652,11.652,0,0,1,5.567,7.718H524.3a7.264,7.264,0,0,1-6.561,4.453,6.485,6.485,0,0,1-2.248-.411,12.591,12.591,0,0,1-.584,2.237,9.027,9.027,0,0,0,2.832.433,9.393,9.393,0,1,0,0-18.787Z" transform="translate(694.413 21.792)" fill="#6c63ff"/><path d="M6.432,0H30.774a6.432,6.432,0,1,1,0,12.863H6.432A6.432,6.432,0,0,1,6.432,0Z" transform="translate(948.075 680.448)" fill="#090814" opacity="0.999"/><path d="M6.432,0h45.01a6.432,6.432,0,1,1,0,12.863H6.432A6.432,6.432,0,0,1,6.432,0Z" transform="translate(948.075 712.606)" fill="#d6d6e3"/><path d="M6.432,0H109.325a6.432,6.432,0,0,1,0,12.863H6.432A6.432,6.432,0,0,1,6.432,0Z" transform="translate(948.075 696.532)" fill="#d6d6e3"/><path d="M227.952,654.25H217.338a3.545,3.545,0,0,0-3.589,3.5v.757h-.67a3.546,3.546,0,0,0-3.589,3.5v25.542a3.61,3.61,0,0,0,3.589,3.589h18.462a3.535,3.535,0,0,0,3.491-3.589v-.67h.767a3.535,3.535,0,0,0,3.491-3.589V665.6Zm0,3.956,7.394,7.394h-7.394Zm4.259,29.347a.724.724,0,0,1-.67.757H213.079a.789.789,0,0,1-.746-.757V662.011a.724.724,0,0,1,.746-.67h.67v22.7c0,1.967.93,2.875,2.886,2.875h15.576Zm4.248-4.259a.713.713,0,0,1-.659.757H217.338a.789.789,0,0,1-.746-.757V657.752a.724.724,0,0,1,.746-.67h7.772v11.36h11.35Z" transform="translate(670.108 30.262)" fill="#6c63ff"/><path d="M6.432,0H30.774a6.432,6.432,0,1,1,0,12.863H6.432A6.432,6.432,0,0,1,6.432,0Z" transform="translate(1258.041 401.353)" fill="#090814" opacity="0.999"/><path d="M6.432,0h45.01a6.432,6.432,0,1,1,0,12.863H6.432A6.432,6.432,0,0,1,6.432,0Z" transform="translate(1258.041 433.51)" fill="#d6d6e3"/><path d="M6.432,0H109.325a6.432,6.432,0,0,1,0,12.863H6.432A6.432,6.432,0,0,1,6.432,0Z" transform="translate(1258.041 417.426)" fill="#d6d6e3"/><path d="M508.524,400h-12.3a3.794,3.794,0,0,0-3.783,3.794V424.6a3.783,3.783,0,0,0,3.783,3.783h32.168a3.783,3.783,0,0,0,3.783-3.783V408.022a3.794,3.794,0,0,0-3.783-3.783H512.307l-3.783-4.259Z" transform="translate(693.006 9.685)" fill="#6c63ff"/><path d="M6.432,0H30.774a6.432,6.432,0,1,1,0,12.863H6.432A6.432,6.432,0,0,1,6.432,0Z" transform="translate(1564.149 560.833)" fill="#090814" opacity="0.999"/><path d="M6.432,0h45.01a6.432,6.432,0,1,1,0,12.863H6.432A6.432,6.432,0,0,1,6.432,0Z" transform="translate(1564.149 592.99)" fill="#d6d6e3"/><path d="M6.432,0H109.325a6.432,6.432,0,0,1,0,12.863H6.432A6.432,6.432,0,0,1,6.432,0Z" transform="translate(1564.149 576.917)" fill="#d6d6e3"/><path d="M815.755,556.417l-7.318-.346-.432-4.767a1.838,1.838,0,0,0-2.032-1.643l-26.234,2.162a1.8,1.8,0,0,0-1.719,1.935l1.87,20.916a1.837,1.837,0,0,0,2.032,1.61l1.33-.1-.205,4.064a2.021,2.021,0,0,0,1.978,2.086l29.282,1.384a2.032,2.032,0,0,0,2.162-1.881l1.232-23.348a2.011,2.011,0,0,0-1.946-2.075Zm-31.477.476-.627,11.955-1.557,2.162-1.427-15.792v-.1a.962.962,0,0,1,.843-.832l23.153-1.891a.875.875,0,0,1,.94.692h0l.227,2.724-19.457-.93A2.054,2.054,0,0,0,784.279,556.892ZM813.9,577.905l-7.567-8.831-3.318,3.048-6.129-7.167L786,576.543l.93-17.652h0a1.016,1.016,0,0,1,1.081-.8l25.834,1.254a.94.94,0,0,1,.919.9h0Z" transform="translate(716.117 21.797)" fill="#6c63ff"/><path d="M807.1,565.846A2.843,2.843,0,1,0,804.27,563a2.843,2.843,0,0,0,2.832,2.843Z" transform="translate(718.242 22.648)" fill="#6c63ff"/><path d="M6.432,0H30.774a6.432,6.432,0,1,1,0,12.863H6.432A6.432,6.432,0,0,1,6.432,0Z" transform="translate(1566.721 401.353)" fill="#090814" opacity="0.999"/><path d="M6.432,0h45.01a6.432,6.432,0,1,1,0,12.863H6.432A6.432,6.432,0,0,1,6.432,0Z" transform="translate(1566.721 433.51)" fill="#d6d6e3"/><path d="M6.432,0H109.325a6.432,6.432,0,0,1,0,12.863H6.432A6.432,6.432,0,0,1,6.432,0Z" transform="translate(1566.721 417.426)" fill="#d6d6e3"/><circle cx="5.675" cy="5.675" r="5.675" transform="translate(1525.798 407.535)" fill="#6c63ff"/><path d="M810.861,410.267l-11.263,7.5-15.609-10.4v-3.794L799.6,413.985l8.972-5.978a7.988,7.988,0,0,1-.108-8.647H783.524a3.8,3.8,0,0,0-3.794,3.794V426.8a3.8,3.8,0,0,0,3.794,3.794h32.168a3.794,3.794,0,0,0,3.783-3.794v-16.43a7.967,7.967,0,0,1-8.647-.065Z" transform="translate(716.256 9.635)" fill="#6c63ff"/><g transform="translate(1315.914 401.353)"><path d="M19.882,72.665C13.238,71.352,6.616,70.04,0,71.049c3.427-2.215,5.255-6.2,6.334-10.128a41.986,41.986,0,0,0,1.2-15.576c-.019-.168-.044-.338-.075-.505a27.1,27.1,0,1,1,29.4,7.857q-.288.743-.557,1.491A24.032,24.032,0,0,0,35,62.143c.108,4.194,1.535,8.258,1.75,12.452q-.908.046-1.815.045A78.37,78.37,0,0,1,19.882,72.665Z" transform="translate(37.946 7.113)" fill="#ed9da0"/><path d="M802.92,445.68a17.991,17.991,0,0,1-3.772,3.8c-.94.767-1.9,1.557-2.908,2.259a12.43,12.43,0,0,1-6.183,2.519c-2.94.195-9.2-1.535-11.025-4.053a7.317,7.317,0,0,1-1.081-4.226,19.327,19.327,0,0,1,1.016-5.9,32.884,32.884,0,0,1,4.767-8.647c2.162-2.962,4.5-5.869,7.664-7.664a29.561,29.561,0,0,1,3.243-1.5l5.761-2.356a2.7,2.7,0,0,1,1.081-.281c1.546,0,1.827,2.378.951,3.654-1.751,2.573-5.7,3.243-6.81,6.194a4.421,4.421,0,0,1,4.107,3.189,2.281,2.281,0,0,0,.551,1.286c.508.4,1.308.173,1.881.486,1.027.54.573,2.065.681,3.243a14.6,14.6,0,0,0,1.081,2.9,6.15,6.15,0,0,1-1.005,5.1Z" transform="translate(-607.774 -389.395)" fill="#ed9da0"/><path d="M643.4,834.539c.951-.951,2.508-.789,3.837-.584A142.685,142.685,0,0,0,668.8,835.7c.908-4.41-1.719-8.647-2.562-13.122a11.628,11.628,0,0,0-.865-3.329c-1.016-1.946-3.308-2.843-5.459-3.243-3.881-.822-9.955-2.259-12.128,1.665C645.183,822.324,644.351,829.285,643.4,834.539Z" transform="translate(-618.662 -357.395)" fill="#ed9da0"/><path d="M719.977,819.227c-2.929,2-6.561,2.616-10.085,3.07s-7.145.8-10.344,2.367c-2.746,1.362-5.07,3.589-7.988,4.561a16.55,16.55,0,0,1-8.291.13c-3.243-.616-6.767-1.805-8.529-4.637-1.578-2.508-1.416-5.7-1.2-8.647.259-3.34.508-6.7.746-10.053a4.757,4.757,0,0,1,.627-2.421c2.367-3.459,8.129,1.438,11.209,1.438,4.886,0,10.128-2.659,13.641-5.891a4.2,4.2,0,0,1,1.081-.8c1.394-.627,2.789.53,4.021,1.535l.422.335c2.854,2.259,6.68,2.724,10.2,3.643s7.3,2.756,8.388,6.237a4.919,4.919,0,0,1,.173.659C724.668,813.941,722.69,817.346,719.977,819.227Z" transform="translate(-616.233 -358.761)" fill="#090814"/><path d="M644.705,617.038a44.069,44.069,0,0,0,6.032,32.428c1.675,2.594,3.643,5.037,4.907,7.858a36.5,36.5,0,0,1,1.913,6.237c6.875,28.558,11.058,57.814,10.8,58.77-2.746,16.333-4.789,33.4.173,49.193,4.507,14.322,4.767,30.19,8.593,44.7.309,1.843,4.621,6.4,5.934,6.648,5.642,1.351,11.6-.227,16.852-2.659,3.7-1.719,7.675-4.724,7.361-8.777-.1-1.312-8.021-35.227-10.226-44.5s-3.718-18.992-1.848-28.353c3.828-19.358,26.6-68.315,28.255-70.909,4.14-6.572,2.832-14.992,2.681-22.753-.151-7.567.93-15.133-.3-22.613s-5.448-15.068-12.636-17.36c-3.556-1.157-7.4-.886-11.123-.519C682.365,606.369,663.211,609.947,644.705,617.038Z" transform="translate(-618.627 -374.466)" fill="#d6d6e3"/><path d="M644.705,617.038a44.069,44.069,0,0,0,6.032,32.428c1.675,2.594,3.643,5.037,4.907,7.858a36.5,36.5,0,0,1,1.913,6.237c6.875,28.558,11.058,57.814,10.8,58.77-2.746,16.333-4.789,33.4.173,49.193,4.507,14.322,4.767,30.19,8.593,44.7.309,1.843,4.621,6.4,5.934,6.648,5.642,1.351,11.6-.227,16.852-2.659,3.7-1.719,7.675-4.724,7.361-8.777-.1-1.312-8.021-35.227-10.226-44.5s-3.718-18.992-1.848-28.353c3.828-19.358,26.6-68.315,28.255-70.909,4.14-6.572,2.832-14.992,2.681-22.753-.151-7.567.93-15.133-.3-22.613s-5.448-15.068-12.636-17.36c-3.556-1.157-7.4-.886-11.123-.519C682.365,606.369,663.211,609.947,644.705,617.038Z" transform="translate(-618.627 -374.466)" fill="#090814" opacity="0.05"/><path d="M724.166,672.825c-3.481,19.457-11.793,61.742-12.247,63.4a40.838,40.838,0,0,1-7.567,14.809c-16.376,20.419-27.877,78.032-28.515,79.675-1.607,4.17-7.729,14.09-8.345,14.041a52.22,52.22,0,0,1-23.089-5.253,4.843,4.843,0,0,1-2.454-2.043c-.271-.75,6.078-21.46,8.3-23.467a261.975,261.975,0,0,1,5.578-45.637c1.729-7.653,16.29-31.336,15.706-37.1-.249-2.529,2.973-7.9,3.589-8.831a3.241,3.241,0,0,0,.4-1.427c.422-3.951-2.983-65.461-6.248-69.493-1.362-1.665-1.373-4.086-3.156-5.286a19.144,19.144,0,0,1-7.2-10.344,56.853,56.853,0,0,1-2.054-12.69,12.194,12.194,0,0,1,0-2.735,4.7,4.7,0,0,1,.367-1.373c1.016-2.281,3.74-3.167,6.172-3.751a200.132,200.132,0,0,1,47.139-5.513c5.88-4,9.177-2.562,11.674,1.665a44.412,44.412,0,0,1,3.319,8.118c1.081,3.437,1.211,22.7,2.313,26.126C729.257,650.2,724.762,669.953,724.166,672.825Z" transform="translate(-618.779 -374.196)" fill="#d6d6e3"/><path d="M620.693,498.392c-.432,3.027.465,14.333-.011,16.96-1.9,10.247,12.852,85.847,14.344,89.166,2.692,6,8.475,9.923,13.987,13.522,3.124-1.081,6.486-2.281,8.237-5.1a12.571,12.571,0,0,0,1.438-4.475c1.189-6.842,1.146-13.825,1.081-20.765a128.2,128.2,0,0,0-.9-17.879c-1.081-7.566-3.556-14.809-5.318-22.235-2.162-9.35-3.34-19.013-6.788-28-3.037-7.88-7.75-14.96-12.722-21.748-1.892-2.583-3.394-6.28-7.069-5.686a7.707,7.707,0,0,0-6.28,6.237Z" transform="translate(-620.514 -383.531)" fill="#6c63ff"/><path d="M620.693,498.392c-.432,3.027.465,14.333-.011,16.96-1.9,10.247,12.852,85.847,14.344,89.166,2.692,6,8.475,9.923,13.987,13.522,3.124-1.081,6.486-2.281,8.237-5.1a12.571,12.571,0,0,0,1.438-4.475c1.189-6.842,1.146-13.825,1.081-20.765a128.2,128.2,0,0,0-.9-17.879c-1.081-7.566-3.556-14.809-5.318-22.235-2.162-9.35-3.34-19.013-6.788-28-3.037-7.88-7.75-14.96-12.722-21.748-1.892-2.583-3.394-6.28-7.069-5.686a7.707,7.707,0,0,0-6.28,6.237Z" transform="translate(-620.514 -383.531)" fill="#090814" opacity="0.198"/><path d="M704.13,465.827c-1.243,1.438-2.919,3.027-4.756,2.562a6.573,6.573,0,0,1-1.859-.995c-3.243-2.162-7.329-2.616-11.2-3.243a164.735,164.735,0,0,1-23.067-5.188,23.706,23.706,0,0,0-6.831-1.384c-4.832,0-33.011,43.367-31.714,51.971s4.724,16.722,8.139,24.732c1.81,4.677,11.887,42.168,10.161,53.927-.443,3.145-.886,6.291-1.459,9.426-1.081,5.718-2.465,11.89.184,17.1,3.167,6.2-.162,14.149.67,21.067a105.716,105.716,0,0,1,27.823-6.6c6.129-.605,12.377-.681,18.3-2.4,3.7-1.081,27.683-5.664,34.492-4.658.54.086,7.116-101.3,7.707-110.925-2.529-4.551-5.178-9.2-7.707-13.749-2.951-5.3-5.934-10.7-7.123-16.646-.789-3.924-.768-7.977-1.33-11.944a5.3,5.3,0,0,0-1.005-2.8,5.069,5.069,0,0,0-4.064-1.2A17.768,17.768,0,0,0,704.13,465.827Z" transform="translate(-620.178 -386.324)" fill="#6c63ff"/><path d="M796.24,449.8a12.43,12.43,0,0,1-6.183,2.519c-2.94.195-9.2-1.535-11.025-4.053a7.317,7.317,0,0,1-1.081-4.226,5.311,5.311,0,0,1,1.232-.238,32.3,32.3,0,0,1,9.577.389c3.113.757,6.118,2.648,7.426,5.578Z" transform="translate(-607.774 -387.454)" opacity="0.1"/><path d="M722.932,518.6a224.838,224.838,0,0,0,39.162-4.324,24.661,24.661,0,0,0,4.324-1.157,22.274,22.274,0,0,0,4.324-2.724c4.248-3.048,18.044-21.174,18.776-27.412,3.07-2.821,9.041-27.538,11.393-29.693a2.962,2.962,0,0,0,1.081-1.438,2.269,2.269,0,0,0-.249-1.394c-1.319-2.929-4.324-4.81-7.437-5.578a32.006,32.006,0,0,0-9.588-.389,21.69,21.69,0,0,0-3.135.843c-2.533,6.854-14.811,23.94-13.457,28.223-3.414.736-9.94,9.355-10.853,9.328-2.529.151-4.734,2.162-7.015,1.081-2.6-1.212-32.29-3.475-34.852-4.1-2.356-.573-4.991-6.977-6.2-9.085-.422-.746-.508-1.762-1.232-2.162a2.378,2.378,0,0,0-1.6-.184,15.391,15.391,0,0,0-4.81,1.459c-2.475,9.728-1.178,19.716.7,29.509C702.959,503.821,719.743,518.668,722.932,518.6Z" transform="translate(-614.065 -387.398)" fill="#6c63ff"/><path d="M699.31,459.014a28.948,28.948,0,0,0-10.215-3.362,21.617,21.617,0,0,0-6.485-.465c-2.011.249-3.945,1.027-5.967,1.081-2.843.162-5.556-.994-8.3-1.74s-11.357,1.155-11.858.659a10.528,10.528,0,0,0-13.122.692c-5.232,4.907-9.745,21.2-11.328,22.336-1.6,1.158-7.122,7.841-7.382,9.8a9.221,9.221,0,0,0,.886,4.1C631.69,507.193,642.5,508.94,658.78,508.2a5.858,5.858,0,0,0,3.924-1.221,7.492,7.492,0,0,0,1.373-2.259c2.886-6.042,5.259-2.9,8.7-8.6,2.043-3.427,13.652-19.532,18.473-23.2,2.724-2.065,5.74-4.237,9.155-4.1,3.038.13,5.253.292,4.129-3.427a11.89,11.89,0,0,0-5.221-6.378Z" transform="translate(-620.179 -386.677)" fill="#6c63ff"/><path d="M694.81,837.683a12.045,12.045,0,0,1-5.82,2.557,104.688,104.688,0,0,1-14.483,1.8l-4.729.361c-4.615.352-9.238.7-13.869.721a96.03,96.03,0,0,1-17.065-1.475,1.869,1.869,0,0,1-1.352-.656,1.838,1.838,0,0,1-.2-1.074c.1-5.768,1.757-15.036,3.053-20.658.533-2.3,4.745,4.528,4.934,4.749.867,1.224,2.762,1.69,4.262,1.719,4.762.262,8.571-.49,12.349-3.064a18.185,18.185,0,0,1,2.574-1.6,7.535,7.535,0,0,1,2.082-.59,12.524,12.524,0,0,1,7.082,1.434c2.844,1.41,5.336,3.434,8.2,4.918a23,23,0,0,0,7.311,2.311c2.574.352,5.656.525,6.975,2.754h0C697.155,833.732,696.368,836.224,694.81,837.683Z" transform="translate(-614.404 -352.019)" fill="#090814"/><path d="M699.31,459.014a28.948,28.948,0,0,0-10.215-3.362,21.617,21.617,0,0,0-6.485-.465c-2.011.249-3.945,1.027-5.967,1.081-2.843.162-5.556-.994-8.3-1.74s-11.357,1.155-11.858.659a10.528,10.528,0,0,0-13.122.692c-5.232,4.907-9.745,21.2-11.328,22.336-1.6,1.158-7.122,7.841-7.382,9.8a9.221,9.221,0,0,0,.886,4.1C631.69,507.193,642.5,508.94,658.78,508.2a5.858,5.858,0,0,0,3.924-1.221,7.492,7.492,0,0,0,1.373-2.259c2.886-6.042,5.259-2.9,8.7-8.6,2.043-3.427,13.652-19.532,18.473-23.2,2.724-2.065,5.74-4.237,9.155-4.1,3.038.13,5.253.292,4.129-3.427a11.89,11.89,0,0,0-5.221-6.378Z" transform="translate(-620.179 -386.677)" fill="#090814" opacity="0.198"/><path d="M652.071,149.038c-2.585-1.45-2.707-2.07-5.352-3.46s-5.648,1.024-7.345,3.46A31.827,31.827,0,0,0,634.33,160.9a5.966,5.966,0,0,1-1.375,3.378,5.29,5.29,0,0,1-3.273,1.069q-5.119.508-10.252.926c-3.811.306-7.831.556-11.291-1.083a8.218,8.218,0,0,1-3.393-2.809,12.64,12.64,0,0,1-1.45-3.8c-1.786-6.793-3.587-13.667-3.736-20.691a16.7,16.7,0,0,1,1.592-8.444c.815-1.494,2.01-2.794,2.346-4.439.179-.873,8.4-9.907,17.817-13.211s18.955.018,19.859,0c1.928-.037,3.916-.747,5.741-.1a3.736,3.736,0,0,0,2.137,5.35l-.9,1.973a5.093,5.093,0,0,1,3.923,3.677c.993,3.923.747,9.5.508,13.532C652.458,137.993,650.853,148.373,652.071,149.038Z" transform="translate(-562.687 -110.33)" fill="#192534"/></g></g></svg>